<svg width="163" height="40" viewBox="0 0 163 40" fill="none" xmlns="http://www.w3.org/2000/svg">
<path fill-rule="evenodd" clip-rule="evenodd" d="M21.568 0.00130933L32.3663 10.8871C34.5548 13.0933 34.6632 16.6337 32.6923 18.9722L12.5251 39.331L1.44951 28.1447C-0.464925 25.93 -0.483108 22.601 1.39561 20.3653L21.5687 0L21.568 0.00130933Z" fill="#E6E6E6"/>
<path fill-rule="evenodd" clip-rule="evenodd" d="M29.2594 0.00130933L40.0577 10.8871C42.2462 13.0933 42.3546 16.6337 40.3837 18.9722L20.2165 39.331L9.14092 28.1447C7.22648 25.93 7.2083 22.601 9.08702 20.3653L29.2601 0L29.2594 0.00130933Z" fill="#281451"/>
<path fill-rule="evenodd" clip-rule="evenodd" d="M38.1867 0.00130933L48.9849 10.8871C51.1734 13.0933 51.2819 16.6337 49.3109 18.9722L29.1437 39.331L18.0682 28.1447C16.1537 25.93 16.1355 22.601 18.0143 20.3653L38.1873 0L38.1867 0.00130933Z" fill="#E25F81"/>
<path d="M63.6621 17.2949C66.7207 17.2949 68.8916 15.4844 69.1641 12.8301L69.1729 12.7334H66.5889L66.5713 12.8037C66.29 14.1572 65.1914 15.0449 63.6709 15.0449C61.667 15.0449 60.4277 13.3574 60.4277 10.6328V10.6152C60.4277 7.89062 61.667 6.21191 63.6621 6.21191C65.1738 6.21191 66.3076 7.17871 66.5801 8.60254V8.66406H69.1641V8.55859C68.918 5.87793 66.668 3.96191 63.6621 3.96191C59.9795 3.96191 57.7119 6.50195 57.7119 10.6152V10.6328C57.7119 14.7461 59.9883 17.2949 63.6621 17.2949Z" fill="white"/>
<path d="M70.9992 16.9697H73.5656V11.3711C73.5656 10.0615 74.2863 9.20898 75.4729 9.20898C76.6857 9.20898 77.2482 9.92969 77.2482 11.292V16.9697H79.8146V10.7119C79.8146 8.40039 78.6545 7.08203 76.5012 7.08203C75.1213 7.08203 74.1633 7.74121 73.7238 8.78711H73.5656V3.59277H70.9992V16.9697Z" fill="white"/>
<path d="M84.4887 17.1191C85.7543 17.1191 86.7738 16.583 87.266 15.6865H87.4242V16.9697H89.9555V10.3604C89.9555 8.29492 88.5053 7.08203 85.9389 7.08203C83.5043 7.08203 81.9047 8.20703 81.7025 9.90332L81.6938 9.98242H84.0668L84.0844 9.94727C84.2865 9.37598 84.8754 9.05078 85.7982 9.05078C86.8529 9.05078 87.4242 9.52539 87.4242 10.3604V11.1602L85.0863 11.3008C82.6781 11.4414 81.3334 12.4609 81.3334 14.2012V14.2188C81.3334 15.9766 82.643 17.1191 84.4887 17.1191ZM83.8383 14.0605V14.043C83.8383 13.3398 84.3744 12.9268 85.473 12.8564L87.4242 12.7334V13.4453C87.4242 14.4648 86.5365 15.2471 85.35 15.2471C84.4623 15.2471 83.8383 14.7988 83.8383 14.0605Z" fill="white"/>
<path d="M93.3287 5.80762C94.1197 5.80762 94.7701 5.1748 94.7701 4.38379C94.7701 3.58398 94.1197 2.95117 93.3287 2.95117C92.5377 2.95117 91.8785 3.58398 91.8785 4.38379C91.8785 5.1748 92.5377 5.80762 93.3287 5.80762ZM92.0367 16.9697H94.6031V7.29297H92.0367V16.9697Z" fill="white"/>
<path d="M96.7371 16.9697H99.3035V11.3711C99.3035 10.0615 100.024 9.20898 101.211 9.20898C102.424 9.20898 102.986 9.92969 102.986 11.292V16.9697H105.553V10.7119C105.553 8.40039 104.392 7.08203 102.239 7.08203C100.859 7.08203 99.9012 7.74121 99.4617 8.78711H99.3035V7.29297H96.7371V16.9697Z" fill="white"/>
<path d="M111.044 17.1191C112.406 17.1191 113.435 16.5127 113.936 15.4668H114.094V16.9697H116.66V3.59277H114.094V8.83984H113.936C113.452 7.78516 112.371 7.13477 111.044 7.13477C108.592 7.13477 107.115 9.00684 107.115 12.1182V12.1357C107.115 15.2295 108.627 17.1191 111.044 17.1191ZM111.914 14.9922C110.561 14.9922 109.726 13.9199 109.726 12.1357V12.1182C109.726 10.3516 110.561 9.26172 111.914 9.26172C113.268 9.26172 114.12 10.3516 114.12 12.127V12.1445C114.12 13.9199 113.276 14.9922 111.914 14.9922Z" fill="white"/>
<path d="M122.064 17.1719C123.444 17.1719 124.428 16.5303 124.867 15.4756H125.026V16.9697H127.592V7.29297H125.026V12.8828C125.026 14.1924 124.34 15.0449 123.074 15.0449C121.862 15.0449 121.343 14.333 121.343 12.9619V7.29297H118.777V13.5508C118.777 15.8535 119.893 17.1719 122.064 17.1719Z" fill="white"/>
<path d="M133.567 17.1719C136.045 17.1719 137.812 15.9238 137.812 14.0078V13.999C137.812 12.5664 136.907 11.7578 134.973 11.3447L133.365 11.002C132.363 10.7822 132.002 10.4834 132.002 9.96484V9.95605C132.002 9.30566 132.635 8.89258 133.523 8.89258C134.481 8.89258 135.052 9.37598 135.193 9.89453L135.202 9.93848H137.583V9.90332C137.478 8.34766 136.072 7.08203 133.532 7.08203C131.115 7.08203 129.497 8.29492 129.497 10.1143V10.123C129.497 11.5732 130.412 12.4785 132.257 12.874L133.874 13.2168C134.859 13.4365 135.246 13.7617 135.246 14.2803V14.2979C135.246 14.9395 134.578 15.3613 133.593 15.3613C132.582 15.3613 131.994 14.9307 131.791 14.333L131.774 14.2979H129.251L129.26 14.333C129.445 15.9941 130.939 17.1719 133.567 17.1719Z" fill="white"/>
<path d="M143.426 17.0049C143.919 17.0049 144.393 16.9521 144.71 16.8906V14.9834C144.463 15.0098 144.288 15.0273 143.954 15.0273C143.084 15.0273 142.714 14.6406 142.714 13.7705V9.22656H144.71V7.29297H142.714V4.98145H140.122V7.29297H138.628V9.22656H140.122V14.3594C140.122 16.2402 141.071 17.0049 143.426 17.0049Z" fill="white"/>
<path d="M146.395 16.9697H148.962V11.5557C148.962 10.1846 149.885 9.34961 151.344 9.34961C151.739 9.34961 152.135 9.41113 152.521 9.49902V7.25781C152.266 7.1875 151.906 7.13477 151.563 7.13477C150.306 7.13477 149.428 7.75 149.12 8.7959H148.962V7.29297H146.395V16.9697Z" fill="white"/>
<path d="M155.077 20.3799C157.468 20.3799 158.742 19.5186 159.604 16.9609L162.899 7.29297H160.192L158.162 14.623H157.986L155.956 7.29297H153.135L156.536 16.9697L156.448 17.3389C156.264 18.0947 155.736 18.4463 154.822 18.4463C154.585 18.4463 154.33 18.4375 154.154 18.4199V20.3535C154.453 20.3711 154.778 20.3799 155.077 20.3799Z" fill="white"/>
<path d="M57.7119 33.7716H59.0117L60.0089 30.9218H63.9563L64.9535 33.7716H66.2533L62.5946 23.8146H61.3705L57.7119 33.7716ZM61.9276 25.4223H62.0376L63.5918 29.8661H60.3733L61.9276 25.4223Z" fill="white"/>
<path d="M70.1099 33.9027C71.8911 33.9027 72.8883 32.9436 73.1909 31.598L73.2046 31.5221L72.0218 31.529L72.008 31.5704C71.7329 32.3985 71.1002 32.8401 70.1031 32.8401C68.7827 32.8401 67.9299 31.7429 67.9299 30.0317V30.0179C67.9299 28.3411 68.7689 27.2647 70.1031 27.2647C71.169 27.2647 71.8292 27.8581 72.0149 28.5895L72.0218 28.6102H73.2115L73.2046 28.5688C72.9846 27.244 71.9049 26.2021 70.1031 26.2021C68.0262 26.2021 66.7058 27.7063 66.7058 30.0179V30.0317C66.7058 32.3916 68.033 33.9027 70.1099 33.9027Z" fill="white"/>
<path d="M76.6418 33.9027C77.639 33.9027 78.4161 33.468 78.8837 32.6745H78.9938V33.7716H80.1904V28.6792C80.1904 27.1336 79.1794 26.2021 77.3708 26.2021C75.789 26.2021 74.6612 26.9887 74.4686 28.1548L74.4618 28.1962H75.6584L75.6652 28.1755C75.8578 27.5959 76.4424 27.2647 77.3295 27.2647C78.4367 27.2647 78.9938 27.7615 78.9938 28.6792V29.3555L76.8687 29.4866C75.1426 29.5901 74.166 30.356 74.166 31.6808V31.6946C74.166 33.0471 75.232 33.9027 76.6418 33.9027ZM75.3902 31.667V31.6532C75.3902 30.9149 75.8853 30.5147 77.0132 30.4457L78.9938 30.3215V30.9977C78.9938 32.0603 78.1066 32.8608 76.8894 32.8608C76.0297 32.8608 75.3902 32.4192 75.3902 31.667Z" fill="white"/>
<path d="M84.7623 33.9027C85.7938 33.9027 86.6191 33.4128 87.073 32.5848H87.183V33.7716H88.3796V23.3799H87.183V27.5062H87.073C86.6672 26.7127 85.7801 26.2021 84.7623 26.2021C82.8779 26.2021 81.6538 27.7132 81.6538 30.0455V30.0593C81.6538 32.3778 82.8848 33.9027 84.7623 33.9027ZM85.0373 32.8401C83.6826 32.8401 82.8779 31.7912 82.8779 30.0593V30.0455C82.8779 28.3135 83.6826 27.2647 85.0373 27.2647C86.3853 27.2647 87.2105 28.3273 87.2105 30.0455V30.0593C87.2105 31.7774 86.3853 32.8401 85.0373 32.8401Z" fill="white"/>
<path d="M93.3504 33.9027C95.0971 33.9027 96.1562 32.9091 96.4107 31.9016L96.4244 31.8464H95.2278L95.2003 31.9085C95.0009 32.3571 94.3819 32.8332 93.3779 32.8332C92.0575 32.8332 91.2116 31.9361 91.1772 30.3974H96.5138V29.9282C96.5138 27.7063 95.2897 26.2021 93.2747 26.2021C91.2597 26.2021 89.9531 27.7753 89.9531 30.0731V30.08C89.9531 32.4123 91.2322 33.9027 93.3504 33.9027ZM93.2678 27.2716C94.3613 27.2716 95.1728 27.9685 95.2966 29.4383H91.1978C91.3285 28.0237 92.1675 27.2716 93.2678 27.2716Z" fill="white"/>
<path d="M98.0185 33.7716H99.2151V29.1623C99.2151 28.1134 99.951 27.2647 100.921 27.2647C101.856 27.2647 102.461 27.8374 102.461 28.7206V33.7716H103.658V28.9898C103.658 28.0444 104.339 27.2647 105.37 27.2647C106.415 27.2647 106.917 27.8098 106.917 28.907V33.7716H108.114V28.6309C108.114 27.0715 107.268 26.2021 105.755 26.2021C104.731 26.2021 103.885 26.7196 103.486 27.5062H103.376C103.032 26.7334 102.33 26.2021 101.326 26.2021C100.357 26.2021 99.6553 26.6644 99.3252 27.4648H99.2151V26.3332H98.0185V33.7716Z" fill="white"/>
<path d="M110.279 36.3799C111.593 36.3799 112.205 35.8969 112.817 34.227L115.712 26.3332H114.453L112.425 32.4537H112.315L110.279 26.3332H109L111.744 33.7785L111.606 34.2201C111.338 35.0757 110.925 35.3863 110.245 35.3863C110.08 35.3863 109.894 35.3794 109.749 35.3518V36.3385C109.915 36.3661 110.121 36.3799 110.279 36.3799Z" fill="white"/>
</svg>
