<svg width="185" height="40" viewBox="0 0 185 40" fill="none" xmlns="http://www.w3.org/2000/svg">
<path d="M175.443 36.4406C178.454 36.4406 179.929 35.3545 180.943 32.3051L185 20.1545H181.61L179.103 29.4442H179.05L176.543 20.1545H173.011L177.113 32.0511C177.136 32.0969 177.015 32.5735 177.015 32.6148C176.794 33.5568 176.212 33.9352 175.033 33.9352C174.913 33.9352 174.331 33.9352 174.23 33.9123V36.4059C174.331 36.4289 175.329 36.44 175.442 36.44L175.443 36.4406Z" fill="white"/>
<path d="M165.063 32.0399H168.277V25.399C168.277 23.7263 169.2 22.7502 170.784 22.7502C171.246 22.7502 171.685 22.8261 171.948 22.9394V20.0896C171.73 20.0215 171.411 19.9685 171.036 19.9685C169.651 19.9685 168.649 20.7862 168.232 22.2958H168.164V20.1544H165.064V32.0399H165.063Z" fill="white"/>
<path d="M157.914 17.418V20.1538H156.251V22.5944H157.914V28.834C157.914 31.1535 158.991 32.0844 161.762 32.0844C162.411 32.0844 162.963 32.0275 163.29 31.9522V29.5685C163.094 29.5987 162.798 29.6216 162.509 29.6216C161.563 29.6216 161.123 29.1901 161.123 28.2821V22.5951H163.301V20.1545H161.123V17.4186H157.914V17.418Z" fill="white"/>
<path d="M145.259 23.6464C145.259 25.3983 146.4 26.5754 148.633 27.0821L150.811 27.5705C151.865 27.8278 152.263 28.1603 152.263 28.7587C152.263 29.5345 151.528 30.0222 150.304 30.0222C149.028 30.0222 148.248 29.4435 148.093 28.4484H144.959C145.135 30.7639 147.072 32.2926 150.218 32.2926C153.329 32.2926 155.462 30.7522 155.462 28.4144C155.462 26.6396 154.505 25.6975 152.143 25.1672L149.887 24.6788C148.855 24.4333 148.348 24.0353 148.348 23.4454C148.348 22.6808 149.072 22.1741 150.183 22.1741C151.369 22.1741 152.132 22.7607 152.195 23.7139H155.153C155.112 21.4062 153.186 19.8998 150.228 19.8998C147.203 19.8998 145.258 21.3872 145.258 23.6458L145.259 23.6464Z" fill="white"/>
<path d="M143.367 20.1547H140.153V26.9619C140.153 28.5364 139.264 29.5688 137.834 29.5688C136.415 29.5688 135.634 28.7249 135.634 27.1393V20.1541H132.425V27.8162C132.425 30.5861 134.118 32.2627 136.671 32.2627C139.541 32.2627 140.087 29.9014 140.266 29.9014V32.0395H143.367V20.1541V20.1547Z" fill="white"/>
<path d="M123.441 32.2292C126.113 32.2292 127.108 30.0001 127.171 30.0001V32.0393H130.336V16.0406H127.127V22.1938C127.008 22.1938 126.142 19.9686 123.463 19.9686C120.505 19.9686 118.636 22.3071 118.636 26.076C118.636 29.879 120.494 32.2292 123.441 32.2292ZM123.178 22.5611C124.773 22.5611 125.797 23.9346 125.797 26.0989C125.797 28.2711 124.773 29.6217 123.178 29.6217C121.563 29.6217 120.572 28.2822 120.572 26.0989C120.572 23.9235 121.563 22.5611 123.178 22.5611Z" fill="white"/>
<path d="M106.086 32.0401H109.299V25.2217C109.299 23.6813 110.211 22.6181 111.653 22.6181C113.094 22.6181 113.818 23.5032 113.818 25.0554V32.0407H117.028V24.3818C117.028 21.5968 115.556 19.9353 112.94 19.9353C110.04 19.9353 109.343 22.2738 109.186 22.2738V20.1546H106.086V32.0401Z" fill="white"/>
<path d="M102.35 18.8485C103.318 18.8485 104.066 18.1035 104.066 17.1725C104.066 16.2305 103.319 15.4999 102.35 15.4999C101.382 15.4999 100.635 16.2305 100.635 17.1725C100.635 18.1035 101.382 18.8485 102.35 18.8485Z" fill="white"/>
<path d="M100.744 32.04H103.953V20.1545H100.744V32.04Z" fill="white"/>
<path d="M91.8611 32.229C94.3074 32.229 95.4484 30.2238 95.5244 30.2238V32.0398H98.6253V23.8702C98.6253 21.4748 96.6544 19.901 93.6327 19.901C90.5097 19.901 88.5615 21.4866 88.4414 23.791H91.3767C91.5306 22.917 92.2891 22.3187 93.4898 22.3187C94.6984 22.3187 95.4679 22.9622 95.4679 24.0706V24.8575L92.4988 25.0316C89.5635 25.2097 87.9121 26.4621 87.9121 28.6264C87.9121 30.7645 89.6161 32.229 91.8611 32.229ZM92.9158 29.8905C91.8274 29.8905 91.1026 29.3341 91.1026 28.449C91.1026 27.6051 91.7819 27.0637 92.9833 26.9727L95.4679 26.8175C95.4679 28.5583 95.0341 29.8899 92.9158 29.8899V29.8905Z" fill="white"/>
<path d="M75.2754 32.04H78.4847V25.2557C78.4847 23.693 79.3783 22.618 80.8947 22.618C82.3584 22.618 83.1052 23.549 83.1052 25.0776V32.0406H86.3146V24.3928C86.3146 21.6419 84.821 19.9352 82.2045 19.9352C79.301 19.9352 78.5672 22.2737 78.4328 22.2737V16.0413H75.276V32.04H75.2754Z" fill="white"/>
<path d="M66.4495 32.3163C70.342 32.3163 73.0558 30.0571 73.4312 26.4852H70.1998C69.8471 28.3811 68.4282 29.5464 66.4612 29.5464C63.92 29.5464 62.3251 27.4384 62.3251 24.0257C62.3251 20.6541 63.9428 18.5389 66.4501 18.5389C68.3834 18.5389 69.8809 19.822 70.1887 21.786H73.4202C73.1688 18.2063 70.2634 15.7657 66.4495 15.7657C61.8517 15.7657 58.9385 18.88 58.9385 24.0374C58.9385 29.2027 61.829 32.317 66.4495 32.317V32.3163Z" fill="white"/>
<path fill-rule="evenodd" clip-rule="evenodd" d="M21.568 0.00130933L32.3663 10.8871C34.5548 13.0933 34.6632 16.6337 32.6923 18.9722L12.5251 39.331L1.44951 28.1447C-0.464925 25.93 -0.483108 22.601 1.39561 20.3653L21.5687 0L21.568 0.00130933Z" fill="#E6E6E6"/>
<path fill-rule="evenodd" clip-rule="evenodd" d="M29.2594 0.00130933L40.0577 10.8871C42.2462 13.0933 42.3546 16.6337 40.3837 18.9722L20.2165 39.331L9.14092 28.1447C7.22648 25.93 7.2083 22.601 9.08702 20.3653L29.2601 0L29.2594 0.00130933Z" fill="#281451"/>
<path fill-rule="evenodd" clip-rule="evenodd" d="M38.1862 0.00130933L48.9844 10.8871C51.1729 13.0933 51.2814 16.6337 49.3104 18.9722L29.1432 39.331L18.0677 28.1447C16.1532 25.93 16.1351 22.601 18.0138 20.3653L38.1868 0L38.1862 0.00130933Z" fill="#E25F81"/>
</svg>
