<svg width="54" height="54" viewBox="0 0 54 54" fill="none" xmlns="http://www.w3.org/2000/svg">
<path d="M26.9997 0.333252C12.2797 0.333252 0.333008 12.2799 0.333008 26.9999C0.333008 41.7199 12.2797 53.6666 26.9997 53.6666C41.7197 53.6666 53.6663 41.7199 53.6663 26.9999C53.6663 12.2799 41.7197 0.333252 26.9997 0.333252ZM41.3463 33.6666C41.3463 39.5333 39.533 41.3466 33.6663 41.3466H20.333C14.4663 41.3466 12.653 39.5333 12.653 33.6666V30.9999C12.653 26.4399 13.7463 24.3333 16.9997 23.6133V21.6666C16.9997 19.1866 16.9997 11.6666 26.9997 11.6666C36.9997 11.6666 36.9997 19.1866 36.9997 21.6666V23.6133C40.253 24.3333 41.3463 26.4399 41.3463 30.9999V33.6666Z" fill="#A772F8"/>
</svg>
