<svg width="46" height="54" viewBox="0 0 46 54" fill="none" xmlns="http://www.w3.org/2000/svg">
<path d="M40.4399 6.12012L25.7732 0.626787C24.2532 0.0667871 21.7732 0.0667871 20.2532 0.626787L5.58655 6.12012C2.75989 7.18679 0.466553 10.4935 0.466553 13.5068V35.1068C0.466553 37.2668 1.87989 40.1201 3.61322 41.4001L18.2799 52.3601C20.8666 54.3068 25.1066 54.3068 27.6932 52.3601L42.3599 41.4001C44.0932 40.0935 45.5066 37.2668 45.5066 35.1068V13.5068C45.5332 10.4935 43.2399 7.18679 40.4399 6.12012ZM24.9999 29.3201V36.3335C24.9999 37.4268 24.0932 38.3335 22.9999 38.3335C21.9066 38.3335 20.9999 37.4268 20.9999 36.3335V29.3201C18.3066 28.4668 16.3332 25.9601 16.3332 23.0001C16.3332 19.3201 19.3199 16.3335 22.9999 16.3335C26.6799 16.3335 29.6665 19.3201 29.6665 23.0001C29.6665 25.9868 27.6932 28.4668 24.9999 29.3201Z" fill="#A772F8"/>
</svg>
